<?xml version="1.0" standalone="no"?>
<!DOCTYPE svg PUBLIC "-//W3C//DTD SVG 20010904//EN"
 "http://www.w3.org/TR/2001/REC-SVG-20010904/DTD/svg10.dtd">
<svg version="1.0" xmlns="http://www.w3.org/2000/svg"
 width="2560.000000pt" height="2560.000000pt" viewBox="0 0 2560.000000 2560.000000"
 preserveAspectRatio="xMidYMid meet">
<metadata>
Created by potrace 1.16, written by Peter Selinger 2001-2019
</metadata>
<g transform="translate(0.000000,2560.000000) scale(0.100000,-0.100000)"
fill="#000000" stroke="none">
<path d="M5356 18839 c-279 -38 -538 -168 -736 -369 -178 -180 -302 -415 -351
-665 -18 -93 -19 -377 0 -470 109 -553 551 -968 1106 -1036 188 -24 439 8 606
76 34 14 66 25 70 25 4 0 390 -384 858 -852 l850 -853 -19 -30 c-36 -58 -122
-240 -151 -317 -77 -208 -112 -409 -112 -643 0 -310 62 -566 205 -852 l51
-103 -850 -851 -850 -852 -79 28 c-485 167 -996 43 -1357 -330 -161 -166 -274
-386 -329 -640 -17 -82 -17 -379 1 -470 78 -392 330 -728 678 -904 202 -102
349 -136 583 -136 117 0 189 6 246 18 562 119 970 572 1026 1142 17 174 -20
432 -82 573 -11 25 -20 52 -20 61 0 9 380 396 844 860 l845 845 138 -66 c76
-37 191 -83 256 -104 l117 -37 0 -1211 0 -1211 -106 -53 c-248 -127 -438 -319
-560 -567 -101 -206 -140 -391 -131 -619 8 -210 41 -344 129 -521 64 -128 121
-208 227 -318 221 -229 478 -352 811 -387 212 -23 472 26 675 127 249 125 457
333 583 588 150 302 168 693 48 1005 -73 188 -159 322 -290 454 -108 108 -206
177 -350 247 l-106 52 2 1211 3 1211 2 -1202 3 -1203 6240 0 6240 0 0 2155 0
2155 -5549 0 c-3053 0 -5552 3 -5554 8 -3 4 -10 50 -16 102 -26 219 -86 422
-181 616 -33 67 -60 126 -60 130 0 5 391 400 869 878 l870 870 68 -27 c278
-109 597 -114 884 -16 350 120 656 423 783 777 49 136 69 262 70 427 0 225
-44 412 -140 595 -183 345 -511 591 -891 667 -128 25 -385 24 -513 -4 -258
-56 -512 -203 -682 -396 -308 -350 -409 -829 -264 -1259 l33 -97 -874 -875
c-480 -482 -875 -876 -878 -876 -2 0 -59 27 -125 60 -136 66 -312 127 -470
161 -93 21 -133 23 -350 24 -217 0 -258 -3 -359 -23 -149 -30 -332 -91 -456
-152 l-100 -49 -863 863 -864 863 30 89 c50 144 66 250 66 419 0 165 -15 254
-64 401 -67 196 -159 343 -309 495 -185 186 -379 293 -631 350 -100 23 -342
33 -444 18z m16214 -7214 l0 -1405 -3125 0 -3125 0 0 1405 0 1405 3125 0 3125
0 0 -1405z m-9334 889 c51 -20 154 -128 154 -159 0 -13 5 -27 10 -30 21 -13 9
-111 -22 -180 -14 -31 -60 -80 -102 -109 -21 -14 -32 -26 -24 -26 19 0 88 -69
88 -87 0 -21 14 -15 35 14 52 70 119 105 195 104 43 0 100 -13 100 -22 0 -5 6
-9 13 -9 22 0 81 -57 101 -96 10 -22 22 -47 27 -56 5 -10 9 -27 9 -38 0 -11 5
-20 10 -20 6 0 10 -9 10 -20 0 -11 4 -28 9 -38 5 -9 14 -30 21 -47 7 -16 16
-38 21 -47 5 -10 9 -27 9 -38 0 -11 5 -20 10 -20 6 0 10 -9 10 -20 0 -11 4
-28 9 -38 9 -18 24 -54 37 -87 l7 -20 5 20 c2 11 8 25 12 30 4 6 13 31 21 58
7 26 17 47 21 47 4 0 8 11 8 24 0 14 5 28 10 31 6 3 10 15 10 26 0 10 5 19 10
19 6 0 10 9 10 20 0 11 5 29 10 40 6 11 15 29 20 40 6 11 10 29 10 40 0 11 5
20 10 20 6 0 10 9 10 19 0 11 5 23 10 26 6 3 10 13 10 21 0 9 7 22 15 30 8 8
20 23 27 33 18 25 83 61 111 61 13 0 28 5 34 11 22 22 154 -23 198 -66 38 -39
83 -158 72 -189 -4 -9 -2 -16 3 -16 6 0 10 4 10 8 0 9 112 126 146 153 11 9
35 22 52 30 18 8 32 17 32 21 0 5 9 8 20 8 11 0 20 5 20 10 0 6 11 10 24 10
14 0 27 4 30 9 10 15 75 23 224 28 95 3 142 1 142 -6 0 -6 18 -11 40 -11 22 0
40 -4 40 -10 0 -5 11 -10 25 -10 14 0 25 -4 25 -10 0 -5 7 -10 16 -10 23 0
134 -78 182 -129 71 -76 152 -214 152 -260 0 -11 4 -22 9 -25 8 -5 23 -112 23
-171 1 -65 -15 -114 -46 -148 -39 -42 -98 -77 -131 -77 -32 0 -32 -5 8 -45 55
-57 56 -59 67 -137 12 -86 -38 -173 -127 -218 -15 -8 -30 -18 -33 -21 -5 -5
-97 -40 -185 -69 -26 -9 -90 -13 -185 -13 -163 0 -225 14 -355 82 -117 61
-254 213 -287 321 -7 22 -16 40 -20 40 -5 0 -8 12 -8 26 0 14 -5 34 -11 46 -6
11 -11 79 -11 160 -1 148 -1 149 -38 53 -9 -24 -23 -60 -39 -97 -6 -16 -16
-40 -22 -55 -7 -16 -15 -37 -19 -48 -8 -22 -46 -111 -79 -187 -12 -26 -21 -52
-21 -57 0 -5 -10 -29 -21 -53 -12 -23 -27 -54 -33 -68 -33 -75 -172 -160 -263
-160 -63 0 -173 50 -230 106 -15 15 -73 128 -73 143 0 6 -4 19 -9 29 -5 9 -13
28 -18 42 -6 14 -15 36 -21 50 -6 14 -28 66 -48 115 -20 50 -41 94 -46 100 -4
5 -8 19 -8 31 0 13 -4 26 -10 29 -5 3 -10 15 -10 26 0 10 -4 19 -10 19 -5 0
-10 11 -10 24 0 14 -4 28 -10 31 -5 3 -10 15 -10 26 0 10 -4 19 -10 19 -5 0
-10 11 -10 24 0 14 -4 28 -10 31 -5 3 -10 15 -10 26 0 10 -4 19 -10 19 -5 0
-10 11 -10 25 0 14 -4 25 -9 25 -6 0 -11 -154 -13 -382 l-3 -383 -27 -40 c-46
-67 -53 -74 -114 -105 -59 -30 -118 -38 -152 -21 -69 34 -91 48 -118 76 -64
66 -64 66 -65 424 -1 179 -4 317 -6 307 -3 -10 -14 -28 -24 -39 -10 -12 -19
-24 -19 -28 0 -14 -84 -65 -126 -77 -27 -8 -132 -12 -308 -12 l-266 0 0 -229
c0 -143 -4 -232 -10 -236 -5 -3 -10 -15 -10 -26 0 -10 -4 -19 -10 -19 -5 0
-10 -7 -10 -16 0 -44 -142 -134 -210 -134 -82 0 -185 63 -226 138 l-24 43 0
705 c0 695 0 705 21 746 25 49 62 88 84 88 8 0 15 5 15 10 0 6 9 10 19 10 11
0 23 5 26 10 4 6 171 10 470 10 461 0 463 0 505 -22 23 -13 52 -35 64 -49 l22
-26 19 40 c23 46 100 117 147 134 48 17 149 16 194 -3z"/>
<path d="M19965 12520 c-3 -5 -15 -10 -25 -10 -31 0 -107 -68 -129 -115 -7
-16 -17 -38 -22 -47 -13 -25 -12 -1435 1 -1443 6 -3 10 -17 10 -31 0 -13 5
-24 10 -24 6 0 10 -6 10 -14 0 -19 88 -96 111 -96 10 0 21 -4 24 -10 11 -18
103 -11 150 11 53 25 112 90 131 145 10 30 14 119 14 377 0 258 3 341 13 350
39 37 100 57 176 57 68 0 78 -2 91 -22 12 -19 16 -87 20 -388 5 -329 7 -369
24 -402 39 -79 127 -138 205 -138 71 0 191 67 191 107 0 7 5 13 10 13 6 0 10
8 10 18 0 10 5 23 10 28 12 12 8 846 -5 907 -4 20 -11 40 -16 43 -5 3 -9 16
-9 30 0 13 -4 24 -10 24 -5 0 -10 6 -10 14 0 23 -101 119 -150 142 -75 36 -94
42 -174 54 -89 15 -208 2 -299 -31 -29 -11 -57 -19 -64 -19 -10 0 -13 35 -13
144 0 80 -4 147 -9 150 -4 3 -11 18 -14 33 -9 43 -101 133 -136 133 -11 0 -23
5 -26 10 -3 6 -26 10 -50 10 -24 0 -47 -4 -50 -10z"/>
<path d="M15988 12486 c-92 -55 -121 -102 -122 -201 0 -80 16 -118 69 -166 61
-56 74 -59 246 -59 l159 0 0 -569 c0 -369 4 -572 10 -576 6 -3 10 -15 10 -26
0 -43 101 -149 143 -149 9 0 19 -4 22 -10 3 -5 33 -10 65 -10 32 0 62 5 65 10
3 6 14 10 24 10 28 0 100 68 126 121 l25 48 0 560 c0 308 3 566 6 575 5 14 29
16 165 16 l159 0 49 32 c48 32 91 85 91 112 0 8 5 18 10 21 6 3 10 30 10 60 0
30 -4 57 -10 60 -5 3 -10 15 -10 26 0 10 -4 19 -10 19 -5 0 -10 5 -10 11 0 16
-52 66 -93 88 -37 21 -48 21 -600 20 -562 -1 -562 -1 -599 -23z"/>
<path d="M17830 12099 c-68 -11 -122 -26 -177 -50 -24 -11 -47 -19 -53 -19 -5
0 -10 -4 -10 -10 0 -5 -6 -10 -13 -10 -7 0 -23 -9 -35 -20 -12 -11 -24 -20
-27 -20 -9 0 -125 -113 -125 -122 0 -5 -9 -18 -20 -30 -11 -12 -20 -28 -20
-35 0 -7 -3 -13 -8 -13 -4 0 -13 -15 -20 -32 -7 -18 -18 -41 -23 -50 -5 -10
-9 -27 -9 -37 0 -11 -4 -22 -9 -25 -15 -10 -23 -86 -23 -221 0 -135 8 -211 23
-221 5 -3 9 -14 9 -25 0 -10 5 -29 12 -42 6 -12 16 -31 21 -42 34 -67 52 -95
59 -95 4 0 8 -5 8 -10 0 -16 81 -93 139 -134 59 -42 173 -96 201 -96 10 0 21
-4 24 -9 5 -8 134 -24 196 -24 179 0 387 70 476 158 66 66 79 164 33 240 -21
36 -66 77 -94 89 -18 7 -15 10 20 26 22 10 48 19 58 19 10 1 39 15 64 32 48
33 62 29 63 -16 0 -27 42 -159 52 -163 4 -2 8 -12 8 -23 0 -10 5 -19 10 -19 6
0 10 -6 10 -13 0 -7 8 -22 18 -33 10 -10 29 -35 42 -54 32 -47 35 -49 110
-104 69 -51 178 -106 210 -106 10 0 22 -4 25 -10 3 -5 23 -10 44 -10 21 0 63
-5 92 -10 87 -17 233 9 347 61 115 53 169 104 199 189 15 42 17 106 3 115 -5
3 -10 14 -10 24 0 20 -71 98 -107 119 -27 14 -173 17 -173 2 0 -5 -9 -10 -20
-10 -11 0 -20 -4 -20 -10 0 -5 -7 -10 -15 -10 -8 0 -15 -3 -15 -8 0 -32 -174
-49 -227 -22 -129 67 -174 257 -95 400 27 48 69 90 90 90 6 0 12 5 12 10 0 6
36 10 88 10 71 0 92 -4 112 -20 14 -11 29 -20 33 -20 4 0 17 -9 29 -20 39 -36
170 -32 228 6 22 15 40 30 40 33 0 4 8 16 18 27 34 38 57 153 33 168 -4 3 -11
19 -14 34 -8 37 -69 101 -127 133 -25 13 -46 27 -48 32 -2 4 -10 7 -18 7 -8 0
-22 4 -32 9 -39 19 -92 32 -177 43 -89 11 -188 1 -305 -30 -89 -23 -237 -116
-291 -182 -19 -23 -39 -48 -45 -54 -10 -10 -51 -88 -92 -173 -16 -31 -32 -35
-32 -8 0 8 -9 30 -20 50 -11 20 -20 41 -20 47 0 35 -156 211 -219 246 -13 8
-38 22 -55 31 -54 31 -148 59 -229 70 -88 12 -109 12 -187 0z m175 -419 c3 -5
13 -10 22 -10 20 0 63 -39 63 -57 0 -10 -33 -13 -155 -13 l-155 0 0 23 c0 16
9 28 28 36 15 8 34 17 42 22 21 11 148 11 155 -1z m195 -470 c13 -8 11 -11 -7
-16 -13 -4 -23 -10 -23 -15 0 -5 -9 -9 -20 -9 -11 0 -20 -4 -20 -10 0 -5 -11
-10 -24 -10 -14 0 -28 -4 -31 -10 -3 -5 -47 -10 -96 -10 -72 0 -98 4 -131 21
-50 26 -71 45 -63 59 8 13 395 13 415 0z"/>
<path d="M11896 12092 c-9 -27 -71 -92 -88 -92 -8 0 -18 -3 -22 -7 -26 -27
-93 -33 -359 -33 l-278 0 3 -67 3 -68 274 -2 c176 -1 290 -6 317 -13 54 -15
135 -90 147 -137 3 -10 5 31 6 90 1 105 2 109 35 161 19 30 48 62 65 72 l30
18 -37 25 c-20 14 -45 35 -55 48 -22 28 -34 29 -41 5z"/>
</g>
</svg>
